<?xml version="1.0" encoding="UTF-8"?>
<!DOCTYPE svg PUBLIC "-//W3C//DTD SVG 1.1//EN" "http://www.w3.org/Graphics/SVG/1.1/DTD/svg11.dtd">
<!-- Creator: CorelDRAW -->
<svg xmlns="http://www.w3.org/2000/svg" xml:space="preserve" width="2480px" height="3508px" style="shape-rendering:geometricPrecision; text-rendering:geometricPrecision; image-rendering:optimizeQuality; fill-rule:evenodd; clip-rule:evenodd"
viewBox="0 0 2.48e+008 3.50743e+008"
 xmlns:xlink="http://www.w3.org/1999/xlink">
 <defs>
  <style type="text/css">
   <![CDATA[
    .str0 {stroke:#333333;stroke-width:476396}
    .str1 {stroke:white;stroke-width:1.63302e+006}
    .fil0 {fill:none}
    .fil2 {fill:none;fill-rule:nonzero}
    .fil1 {fill:black}
    .fil3 {fill:#6699FF;fill-rule:nonzero}
    .fil4 {fill:yellow;fill-rule:nonzero}
   ]]>
  </style>
 </defs>
 <g id="Layer_x0020_1">
  <metadata id="CorelCorpID_0Corel-Layer"/>
  <g>
   <path class="fil0 str0" d="M1.01731e+008 1.49775e+008l4.4537e+007 0c1.87594e+006,0 3.32816e+006,1.45222e+006 3.32816e+006,3.32816e+006l0 4.4537e+007c0,1.87594e+006 -1.45222e+006,3.32816e+006 -3.32816e+006,3.32816e+006l-4.4537e+007 0c-1.87594e+006,0 -3.32816e+006,-1.45222e+006 -3.32816e+006,-3.32816e+006l0 -4.4537e+007c0,-1.87594e+006 1.45222e+006,-3.32816e+006 3.32816e+006,-3.32816e+006z"/>
   <path id="1" class="fil1" d="M1.01731e+008 1.49775e+008l4.4537e+007 0c1.87594e+006,0 3.32816e+006,1.45222e+006 3.32816e+006,3.32816e+006l0 4.4537e+007c0,1.87594e+006 -1.45222e+006,3.32816e+006 -3.32816e+006,3.32816e+006l-4.4537e+007 0c-1.87594e+006,0 -3.32816e+006,-1.45222e+006 -3.32816e+006,-3.32816e+006l0 -4.4537e+007c0,-1.87594e+006 1.45222e+006,-3.32816e+006 3.32816e+006,-3.32816e+006z"/>
  </g>
  <g>
   <polygon class="fil2 str1" points="1.06913e+008,1.96693e+008 1.06913e+008,1.54763e+008 1.12468e+008,1.54763e+008 1.12468e+008,1.91743e+008 1.33116e+008,1.91743e+008 1.33116e+008,1.96693e+008 "/>
  </g>
  <g>
   <path id="1" class="fil2 str1" d="M1.32154e+008 1.96693e+008l0 -2.6369e+007 -4.5397e+006 0 0 -4.00272e+006 4.5397e+006 0 0 -3.23144e+006c0,-2.04033e+006 185528,-3.56329e+006 546663,-4.54938e+006 497890,-1.33743e+006 1.36683e+006,-2.42119e+006 2.6164e+006,-3.25093e+006 1.24968e+006,-829855 2.99714e+006,-1.23988e+006 5.2524e+006,-1.23988e+006 1.44478e+006,0 3.04591e+006,165924 4.80317e+006,517375l-771280 4.49093e+006c-1.06404e+006,-195330 -2.07942e+006,-292994 -3.03611e+006,-292994 -1.56205e+006,0 -2.66529e+006,331966 -3.30962e+006,1.00558e+006 -654011,663931 -976175,1.9135e+006 -976175,3.74893e+006l0 2.80181e+006 5.9161e+006 0 0 4.00272e+006 -5.9161e+006 0 0 2.6369e+007 -5.12545e+006 0z"/>
  </g>
  <polygon id="12" class="fil3" points="1.06913e+008,1.96693e+008 1.06913e+008,1.54763e+008 1.12468e+008,1.54763e+008 1.12468e+008,1.91743e+008 1.33116e+008,1.91743e+008 1.33116e+008,1.96693e+008 "/>
  <path id="123" class="fil4" d="M1.32154e+008 1.96693e+008l0 -2.6369e+007 -4.5397e+006 0 0 -4.00272e+006 4.5397e+006 0 0 -3.23144e+006c0,-2.04033e+006 185528,-3.56329e+006 546663,-4.54938e+006 497890,-1.33743e+006 1.36683e+006,-2.42119e+006 2.6164e+006,-3.25093e+006 1.24968e+006,-829855 2.99714e+006,-1.23988e+006 5.2524e+006,-1.23988e+006 1.44478e+006,0 3.04591e+006,165924 4.80317e+006,517375l-771280 4.49093e+006c-1.06404e+006,-195330 -2.07942e+006,-292994 -3.03611e+006,-292994 -1.56205e+006,0 -2.66529e+006,331966 -3.30962e+006,1.00558e+006 -654011,663931 -976175,1.9135e+006 -976175,3.74893e+006l0 2.80181e+006 5.9161e+006 0 0 4.00272e+006 -5.9161e+006 0 0 2.6369e+007 -5.12545e+006 0z"/>
 </g>
</svg>
