<?xml version="1.0" encoding="UTF-8"?>
<svg width="512" height="980" version="1.1" viewBox="0 0 512 980" xml:space="preserve" xmlns="http://www.w3.org/2000/svg" xmlns:cc="http://creativecommons.org/ns#" xmlns:dc="http://purl.org/dc/elements/1.1/" xmlns:rdf="http://www.w3.org/1999/02/22-rdf-syntax-ns#"><title>Themera Logo - Sidebar</title><defs><style type="text/css">
   <![CDATA[
    .str0 {stroke:#062340;stroke-width:0.0289528;stroke-linecap:round;stroke-linejoin:round}
    .fil6 {fill:none}
    .fil0 {fill:#377DC4}
    .fil8 {fill:#3D8CDB}
    .fil1 {fill:#1863AE}
    .fil5 {fill:#1F66AD}
    .fil3 {fill:#2375C7}
    .fil9 {fill:#245698}
    .fil10 {fill:#2D5A95}
    .fil4 {fill:#509BE6}
    .fil2 {fill:#5FA1E3}
    .fil7 {fill:#FFF200;fill-rule:nonzero}
   ]]>
  </style><clipPath id="clipPath190-1"><rect transform="rotate(7.1714)" x="36.765" y="-528.63" width="562.26" height="562.26" rx="109.82" ry="109.82" fill="#377dc4" style="paint-order:stroke fill markers"/></clipPath><filter id="filter170-6" x="-.042487" y="-.041728" width="1.085" height="1.1126" color-interpolation-filters="sRGB"><feFlood flood-color="rgb(0,0,0)" flood-opacity=".30196" in="SourceGraphic" result="flood"/><feGaussianBlur in="SourceGraphic" result="blur" stdDeviation="10.000000"/><feOffset dx="0.000000" dy="16.769230" in="blur" result="offset"/><feComposite in="flood" in2="offset" operator="in" result="comp1"/><feComposite in="SourceGraphic" in2="comp1" result="comp2"/></filter><clipPath id="clipPath191"><rect transform="matrix(-.99249 -.12233 -.12233 .99249 0 0)" x="-713.25" y="-663.29" width="755.57" height="755.57" rx="147.57" ry="147.57" fill="#377dc4" style="paint-order:stroke fill markers"/></clipPath><filter id="filter186" x="-.03399" y="-.033383" width="1.068" height="1.0959" color-interpolation-filters="sRGB"><feFlood flood-color="rgb(0,0,0)" flood-opacity=".10196" in="SourceGraphic" result="flood"/><feGaussianBlur in="SourceGraphic" result="blur" stdDeviation="8.000000"/><feOffset dx="0.000000" dy="16.769230" in="blur" result="offset"/><feComposite in="flood" in2="offset" operator="in" result="comp1"/><feComposite in="SourceGraphic" in2="comp1" result="comp2"/></filter><filter id="filter117-5" x="-.019351" y="-.09207" width="1.0387" height="1.2225" color-interpolation-filters="sRGB"><feFlood flood-color="rgb(0,0,0)" flood-opacity=".2" in="SourceGraphic" result="flood"/><feGaussianBlur in="SourceGraphic" result="blur" stdDeviation="0.500000"/><feOffset dx="0.000000" dy="0.500000" in="blur" result="offset"/><feComposite in="flood" in2="offset" operator="in" result="comp1"/><feComposite in="SourceGraphic" in2="comp1" result="comp2"/></filter><filter id="filter46" x="-.18577" y="-.18577" width="1.4159" height="1.4292" color-interpolation-filters="sRGB"><feFlood flood-color="rgb(0,0,0)" flood-opacity=".4" in="SourceGraphic" result="flood"/><feGaussianBlur in="SourceGraphic" result="blur" stdDeviation="14.241486"/><feOffset dx="8.153846" dy="10.615385" in="blur" result="offset"/><feComposite in="flood" in2="offset" operator="in" result="comp1"/><feComposite in="SourceGraphic" in2="comp1" result="comp2"/></filter></defs><metadata><rdf:RDF><cc:Work rdf:about=""><dc:title>Themera Logo - Sidebar</dc:title></cc:Work></rdf:RDF></metadata><g stroke-width=".99625"><rect width="512" height="980" fill="#fff" style="paint-order:stroke fill markers"/><path d="m491.75 814.26-239.93 165.74-230.69-178.56 97.359-276.1 290.86 7.9177z" fill="#144373" style="paint-order:stroke fill markers"/><path d="m132.74 714.6-121.13-73.783 32.255-138.81 141.07-12.004 54.931 131.39z" fill="#5fa0e3" style="paint-order:stroke fill markers"/><path d="m87.947 492.16-68.508-299.89 262.08-158.28 230.48 202.07-119.63 283.17z" fill="#1f64aa" style="paint-order:stroke fill markers"/><path d="m100.83 268.76-78.512-147.88 115.4-120.88 149.83 73.162-22.8 166.1z" fill="#5fa0e3" style="paint-order:stroke fill markers"/><path d="m162.76 613.99-7.652-224.25 209.44-76.627 137.1 176.9-124.72 185.95z" fill="#257bd3" style="paint-order:stroke fill markers"/></g><path d="m341.49 47.102 118.52-9.129 45.249 110.68-90.555 77.536-101.21-62.764z" fill="#2e8cf1" stroke-width=".3414" style="paint-order:stroke fill markers"/><g clip-rule="evenodd" fill-rule="evenodd" shape-rendering="geometricPrecision"><rect transform="rotate(-90)" x="-910.45" y="173.89" width="183.99" height="183.99" rx="35.935" ry="35.935" fill="#377dc4" filter="url(#filter46)" image-rendering="optimizeQuality" stroke-width=".35935" style="paint-order:stroke fill markers"/><path transform="matrix(-.040851 -.32467 .32467 -.040851 346.87 922.48)" d="m420.31-389.06-35.753 355.46-349.11 75.84-180.01-308.59 237.86-266.56z" clip-path="url(#clipPath190-1)" fill="#1863ae" filter="url(#filter170-6)" image-rendering="optimizeQuality" style="paint-order:stroke fill markers"/><path transform="matrix(-.029788 .24168 .24168 .029788 335.4 736.76)" d="m420.31-389.06-35.753 355.46-349.11 75.84-180.01-308.59 237.86-266.56z" clip-path="url(#clipPath191)" fill="#5fa1e3" filter="url(#filter186)" image-rendering="optimizeQuality" style="paint-order:stroke fill markers"/><text transform="matrix(0,-12.337,12.337,0,330.92,854.16)" fill="#fff200" filter="url(#filter117-5)" font-family="Gadugi" font-size="17.333px" image-rendering="optimizeQuality" stroke-width="10" text-rendering="geometricPrecision" style="paint-order:stroke fill markers;shape-inside:url(#rect68);white-space:pre" xml:space="preserve"><tspan x="0" y="0">themera</tspan></text></g></svg>
